#!OML:ASF E:\Steps\Project 1\Capture day 1\Session 2\Subject.ASF
:FULLY-SPECIFIED
:DEGREES
127
root 9.3315 16.3893 8.73707 -151.004 -0.0673507 179.041
lowerback -25.5019 -1.64137 -7.02808
upperback -2.05148 -0.702931 -0.593649
thorax 12.0147 -0.937611 3.06674
lowerneck 0.296154 -0.325844 -4.4121
upperneck 8.94734 -0.443626 6.86982
head 2.88052 0.0113568 3.05062
rclavicle -3.97569e-015 5.96354e-015
rhumerus -36.9469 -11.9196 -80.3283
rradius 30.8517
rwrist 0.818345
rhand -10.5509 -49.669
rfingers 7.12502
rthumb 15.4531 -79.0713
lclavicle -3.97569e-015 5.96354e-015
lhumerus -32.7085 -11.2341 83.9662
lradius 27.782
lwrist -3.49261
lhand -22.8963 -14.02
lfingers 7.12502
lthumb 3.54322 15.9303
rfemur -29.7728 10.0837 14.2379
rtibia 12.0061
rfoot -20.595 -8.5892
rtoes -29.7
lfemur -30.4837 -10.3021 -16.5007
ltibia 12.2245
lfoot -10.0663 5.29181
ltoes -42.7545
128
root 9.33013 16.3926 8.72208 -151.226 0.189942 179.26
lowerback -25.3849 -2.20645 -6.47318
upperback -1.87974 -0.379476 -0.568747
thorax 12.1704 -0.253892 2.9983
lowerneck 0.342635 -0.315943 -4.36688
upperneck 8.93351 -0.429702 6.85121
head 2.86548 0.0187478 3.03514
rclavicle 1.19271e-015 -7.55382e-015
rhumerus -37.3402 -11.4773 -80.2888
rradius 31.3481
rwrist 0.758405
rhand -10.3549 -49.7991
rfingers 7.12502
rthumb 15.6418 -79.1867
lclavicle 1.19271e-015 -7.55382e-015
lhumerus -33.1248 -12.3331 84.0158
lradius 28.3426
lwrist -3.07122
lhand -22.9377 -14.1841
lfingers 7.12502
lthumb 3.50326 15.7668
rfemur -29.5399 10.2264 14.4712
rtibia 12.0118
rfoot -20.6318 -8.46847
rtoes -30.411
lfemur -30.085 -10.5132 -16.2555
ltibia 12.1054
lfoot -10.1967 5.81329
ltoes -42.8407
129
root 9.33356 16.4008 8.71238 -151.519 0.318573 179.341
lowerback -25.1364 -2.11779 -6.47948
upperback -1.61419 -0.320295 -0.571698
thorax 12.3363 -0.259221 3.01445
lowerneck 0.341404 -0.307254 -4.21361
upperneck 8.90279 -0.418088 6.80755
head 2.85218 0.0276142 2.99062
rclavicle 5.26779e-015 -8.74653e-015
rhumerus -37.6124 -11.076 -80.2786
rradius 31.7508
rwrist 0.665103
rhand -10.11 -49.919
rfingers 7.12502
rthumb 15.8777 -79.288
lclavicle 5.26779e-015 -8.74653e-015
lhumerus -33.5343 -13.5564 84.0519
lradius 29.1397
lwrist -2.54566
lhand -23.109 -13.9759
lfingers 7.12502
lthumb 3.3378 15.9777
rfemur -29.2 10.2981 14.6285
rtibia 12.0084
rfoot -20.614 -8.41505
rtoes -30.6823
lfemur -29.6921 -10.5904 -16.2072
ltibia 12.0849
lfoot -10.324 6.00035
ltoes -42.8696
130
root 9.34381 16.4053 8.7229 -151.407 0.256971 179.345
lowerback -24.8701 -2.18334 -6.57767
upperback -1.5827 -0.417293 -0.532244
thorax 12.2385 -0.313717 3.08064
lowerneck 0.396785 -0.301904 -4.1353
upperneck 8.89213 -0.410172 6.78399
head 2.83658 0.0331527 2.96709
rclavicle 4.77083e-015 7.15625e-015
rhumerus -37.9215 -10.4347 -80.2833
rradius 32.0806
rwrist 0.348753
rhand -10.1847 -49.194
rfingers 7.12502
rthumb 15.8058 -78.5687
lclavicle 4.77083e-015 7.15625e-015
lhumerus -34.2587 -14.6846 84.1341
lradius 30.1046
lwrist -2.08168
lhand -23.4673 -13.7861
lfingers 7.12502
lthumb 2.99179 16.1727
rfemur -29.4281 10.3737 14.6296
rtibia 12.1446
rfoot -20.6888 -8.4368
rtoes -30.0963
lfemur -30.0116 -10.4894 -16.1263
ltibia 12.3676
lfoot -10.396 5.87184
ltoes -42.8255
131
root 9.36332 16.4071 8.75826 -150.754 -0.0325772 179.221
lowerback -24.6994 -1.7894 -7.14171
upperback -1.7925 -0.873446 -0.439223
thorax 11.9065 -1.0014 3.25811
lowerneck 0.414761 -0.275807 -4.25457
upperneck 8.91106 -0.374997 6.79478
head 2.83888 0.0464875 2.99422
rclavicle 5.1684e-015 1.98785e-015
rhumerus -38.2348 -9.66487 -80.261
rradius 32.4975
rwrist -0.0576564
rhand -10.5646 -48.6074
rfingers 7.12502
rthumb 15.4399 -78.0107
lclavicle 5.1684e-015 1.98785e-015
lhumerus -34.89 -15.2499 84.1102
lradius 30.8245
lwrist -2.0763
lhand -23.3322 -14.2085
lfingers 7.12502
lthumb 3.12226 15.7484
rfemur -30.4228 10.3329 14.4505
rtibia 12.5003
rfoot -20.7754 -8.78502
rtoes -29.7921
lfemur -31.2712 -10.3076 -16.0007
ltibia 13.0883
lfoot -10.5014 5.48699
ltoes -42.868
132
root 9.36965 16.4053 8.76601 -150.47 0.038063 179.131
lowerback -24.7006 -1.84354 -7.24541
upperback -1.75656 -0.911118 -0.430605
thorax 11.9548 -1.02526 3.31396
lowerneck 0.355921 -0.248265 -4.39124
upperneck 8.92128 -0.33938 6.81667
head 2.85273 0.0594128 3.0291
rclavicle -1.39149e-015 3.10104e-014
rhumerus -38.5831 -8.78482 -80.3171
rradius 33.1685
rwrist -0.539344
rhand -10.7139 -48.5369
rfingers 7.12502
rthumb 15.2961 -77.9513
lclavicle -1.39149e-015 3.10104e-014
lhumerus -35.3094 -15.7454 84.0012
lradius 31.4848
lwrist -2.04927
lhand -22.9002 -14.8732
lfingers 7.12502
lthumb 3.53945 15.0772
rfemur -30.9559 10.1598 14.3259
rtibia 12.8222
rfoot -20.8409 -8.77683
rtoes -30.0804
lfemur -31.7386 -10.5994 -15.9064
ltibia 13.3096
lfoot -10.6076 5.82577
ltoes -42.7192
133
root 9.37748 16.4035 8.78199 -150.084 0.0327516 179.007
lowerback -24.6625 -1.86788 -7.35774
upperback -1.75956 -0.911214 -0.485403
thorax 11.931 -1.02977 3.3162
lowerneck 0.354327 -0.259624 -4.42576
upperneck 8.90321 -0.356748 6.85242
head 2.84884 0.0500424 3.04734
rclavicle 5.76476e-015 2.42517e-014
rhumerus -39.0932 -8.06549 -80.3799
rradius 33.9997
rwrist -0.935451
rhand -10.5838 -48.5501
rfingers 7.12502
rthumb 15.4214 -77.9548
lclavicle 5.76476e-015 2.42517e-014
lhumerus -35.9136 -16.803 83.9965
lradius 32.4367
lwrist -1.51741
lhand -22.795 -14.6642
lfingers 7.12502
lthumb 3.64111 15.2845
rfemur -31.6664 10.0088 14.1408
rtibia 13.2386
rfoot -20.9106 -8.73493
rtoes -30.1202
lfemur -32.3904 -10.7481 -15.8477
ltibia 13.5549
lfoot -10.6681 5.90727
ltoes -42.5284
134
root 9.38731 16.4024 8.80069 -149.621 0.0865755 179.023
lowerback -24.5119 -1.83837 -7.35441
upperback -1.89333 -0.90481 -0.532072
thorax 11.6918 -1.02171 3.26615
lowerneck 0.369195 -0.292121 -4.37738
upperneck 8.89572 -0.401932 6.8703
head 2.84618 0.0298545 3.0432
rclavicle 3.77691e-015 -3.18055e-015
rhumerus -39.7318 -7.59837 -80.3679
rradius 34.7128
rwrist -1.13105
rhand -10.621 -48.5789
rfingers 7.12502
rthumb 15.3856 -77.9864
lclavicle 3.77691e-015 -3.18055e-015
lhumerus -36.7477 -18.0575 84.0394
lradius 33.4686
lwrist -0.744151
lhand -22.6618 -13.8728
lfingers 7.12502
lthumb 3.76965 16.0736
rfemur -32.554 10.0671 14.0423
rtibia 13.8062
rfoot -21.0095 -8.7283
rtoes -30.237
lfemur -33.1637 -10.6617 -15.667
ltibia 13.8916
lfoot -10.7763 5.93414
ltoes -42.52
135
root 9.39539 16.401 8.81106 -149.284 0.21223 179.085
lowerback -24.3002 -1.80472 -7.29193
upperback -2.03997 -0.916989 -0.560274
thorax 11.4071 -1.0181 3.19808
lowerneck 0.404302 -0.307461 -4.33523
upperneck 8.9064 -0.422448 6.8646
head 2.84409 0.0212667 3.03271
rclavicle 7.7526e-015 0
rhumerus -40.4014 -7.06788 -80.3447
rradius 35.2733
rwrist -1.33668
rhand -10.7075 -48.6553
rfingers 7.12502
rthumb 15.3023 -78.0692
lclavicle 7.7526e-015 0
lhumerus -37.5808 -19.0939 84.0821
lradius 34.2142
lwrist -0.110775
lhand -22.6185 -13.7621
lfingers 7.12502
lthumb 3.81153 16.1836
rfemur -33.3127 10.1119 14.0222
rtibia 14.4314
rfoot -21.2103 -8.71917
rtoes -30.4842
lfemur -33.8103 -10.6348 -15.4699
ltibia 14.3837
lfoot -10.9973 6.07259
ltoes -42.5982
136
root 9.3953 16.4015 8.79667 -149.465 0.486334 179.261
lowerback -24.1808 -2.52596 -6.81848
upperback -2.10608 -0.845383 -0.383719
thorax 11.3123 -0.464755 3.2495
lowerneck 1.16456 -0.149907 -4.63752
upperneck 8.86484 -0.20052 6.84047
head 2.67778 0.117995 3.07725
rclavicle 1.19271e-015 -5.96354e-015
rhumerus -41.4185 -5.84 -80.2292
rradius 36.0385
rwrist -1.6747
rhand -10.0561 -49.0187
rfingers 7.12502
rthumb 15.9296 -78.3836
lclavicle 1.19271e-015 -5.96354e-015
lhumerus -38.9487 -19.4059 84.3764
lradius 34.935
lwrist 0.18425
lhand -23.1076 -14.0998
lfingers 7.12502
lthumb 3.33923 15.8538
rfemur -33.2698 10.194 14.2261
rtibia 14.7238
rfoot -21.3909 -8.52922
rtoes -30.8189
lfemur -33.628 -10.8176 -15.2839
ltibia 14.6428
lfoot -11.2687 6.56006
ltoes -42.6258
137
root 9.40546 16.4014 8.81304 -149.168 0.374643 179.22
lowerback -24.0589 -2.65133 -6.93452
upperback -2.09899 -1.01278 -0.252214
thorax 11.2771 -0.554372 3.40814
lowerneck 1.36513 -0.0811707 -4.80729
upperneck 8.83941 -0.107847 6.84478
head 2.62782 0.156698 3.10978
rclavicle 3.77691e-015 -1.98785e-015
rhumerus -41.9046 -5.17843 -80.0573
rradius 36.8296
rwrist -1.94068
rhand -9.24897 -49.4265
rfingers 7.12502
rthumb 16.7068 -78.7276
lclavicle 3.77691e-015 -1.98785e-015
lhumerus -39.7773 -20.0415 84.5701
lradius 35.818
lwrist 0.476133
lhand -23.6726 -14.1425
lfingers 7.12502
lthumb 2.79353 15.819
rfemur -33.8703 10.2288 14.1321
rtibia 15.1367
rfoot -21.4681 -8.71565
rtoes -31.0223
lfemur -34.3453 -10.8622 -15.1479
ltibia 15.2182
lfoot -11.422 6.5578
ltoes -42.5605
